<?xml version="1.0" encoding="utf-8"?>
<!-- Generator: Adobe Illustrator 22.1.0, SVG Export Plug-In . SVG Version: 6.00 Build 0)  -->
<svg version="1.1" id="Ebene_1" xmlns="http://www.w3.org/2000/svg" xmlns:xlink="http://www.w3.org/1999/xlink" x="0px" y="0px"
	 viewBox="0 0 1000 1000" style="enable-background:new 0 0 1000 1000;" xml:space="preserve">
<style type="text/css">
	.st0{fill:#97BF0D;}
	.st1{fill:#FFFFFF;}
</style>
<g id="Background">
	<rect id="st0" y="0" class="st0" width="1000" height="1000"/>
</g>
<path class="st1" d="M712.7,677.2v17.7c0,29.4-23.8,53.2-53.2,53.2H234.2c-29.4,0-53.2-23.8-53.2-53.2V411.4
	c0-29.4,23.8-53.2,53.2-53.2h17.7v53.2h-11.1c-3.7,0-6.6,3-6.6,6.6v270.3c0,3.7,3,6.6,6.6,6.6h412c3.7,0,6.6-3,6.6-6.6v-11.1H712.7z
	 M759.2,305.1h-412c-3.7,0-6.6,3-6.6,6.6V582c0,3.7,3,6.6,6.6,6.6h412c3.7,0,6.6-3,6.6-6.6V311.7C765.8,308,762.9,305.1,759.2,305.1
	z M765.8,251.9c29.4,0,53.2,23.8,53.2,53.2v283.6c0,29.4-23.8,53.2-53.2,53.2H340.5c-29.4,0-53.2-23.8-53.2-53.2V305.1
	c0-29.4,23.8-53.2,53.2-53.2H765.8z M473.4,375.9c0,24.5-19.8,44.3-44.3,44.3c-24.5,0-44.3-19.8-44.3-44.3
	c0-24.5,19.8-44.3,44.3-44.3C453.6,331.6,473.4,351.5,473.4,375.9z M393.7,482.3l43.8-43.8c5.2-5.2,13.6-5.2,18.8,0l43.8,43.8
	l114.7-114.7c5.2-5.2,13.6-5.2,18.8,0l79.2,79.2v88.6h-319V482.3z"/>
</svg>
