<?xml version="1.0" encoding="utf-8"?>
<!-- Generator: Adobe Illustrator 21.0.0, SVG Export Plug-In . SVG Version: 6.00 Build 0)  -->
<svg version="1.1" xmlns="http://www.w3.org/2000/svg" xmlns:xlink="http://www.w3.org/1999/xlink" x="0px" y="0px"
	 viewBox="0 0 1000 1000" style="enable-background:new 0 0 1000 1000;" xml:space="preserve">
<style type="text/css">
	.st0{fill:#97BF0D;}
	.st1{fill:#534842;}
	.st2{fill:#95C123;}
	.st3{fill:#FFF5DE;}
</style>
<g id="Kreis">
	<path class="st0" d="M959.1,994.6H44.3C23.8,994.6,7,977.8,7,957.3V45.7C7,24.4,24.4,7,45.7,7h913.3c20.5,0,37.3,16.8,37.3,37.3
		v913C996.4,977.8,979.6,994.6,959.1,994.6z"/>
</g>
<g id="Counter">
	<path class="st1" d="M145,297l655,1.1V197.5c0,0-0.7-33.6-38.5-39.2c-37.8-5.6-581.9-1.1-581.9-1.1s-33.7,5.6-33.7,41.4
		S145,297,145,297z"/>
	<path class="st1" d="M144,328.3l659,1.1l1.1,416.2c0,0,11.2,49.2-43.6,53.7s-573.9,1.1-573.9,1.1s-45.9,0-44.8-55.9
		C142.9,688.5,144,328.3,144,328.3z"/>
	<path class="st2" d="M413.9,445c0,0-50.3-7.3-54.8,48.7c-4.5,55.9,73.8,45.3,73.8,45.3h167.8c0,0,40.3-5,42.5-45.3
		c2.2-40.3-41.4-48.7-41.4-48.7H413.9z"/>
</g>
<g id="Ebene_3">
	<path class="st1" d="M323.3,797.8c0,0,121.9,192.1,306.6,176.2l336.4-246c0,0,20.4-35.4-23.2-39.8
		c-43.6-4.5-210.4-42.3-272.7-100.9c0,0-12.4-6.2-27.8,5.6C627.3,604.7,372.7,767.9,323.3,797.8z"/>
	<path class="st3" d="M382.3,814.9c0,0,128.3,117.5,226.8,115L886.5,729c0,0-133-21.2-224.6-91.1L382.3,814.9z"/>
	<path class="st1" d="M324.6,793.3c0,0,163.5,152,334.8,91l258.2-317.2c0,0,10.6-38.6-31.9-32c-42.5,6.6-210.2,12.1-283.9-28
		c0,0-13.3-2.8-25,12.3C565.1,534.4,364,752.6,324.6,793.3z"/>
	<path class="st3" d="M384.8,794.8c0,0,151,79.6,243.9,52.8L842,587.9c0,0-131.5,12.9-235.9-30.6L384.8,794.8z"/>
	<path class="st1" d="M322.6,796.9c0,0,186.2,97.3,326.5-0.8L804.4,444c0,0,0-37.7-36.9-21.1s-187.7,63.3-264.7,45.2
		c0,0-12.8,0.8-19.6,17.3C476.4,502.1,348.2,750.1,322.6,796.9z"/>
	<path class="st3" d="M377.6,783.3c0,0,156.8,34.7,234.5-12.8l128.9-288.8c0,0-116.1,44.5-221.7,30.9L377.6,783.3z"/>
	<path class="st1" d="M650.2,648.8l-20.8,41.6c-71.9,34.1-163.6,2.2-163.6,2.2l15-36.7c0,0,51.3-7.1,62.3-21.2
		c5.5-7,9.3-11.5,11.8-14.3c-14-9.2-23.3-25.1-23.3-43.2c0-28.6,23.2-51.7,51.7-51.7c28.6,0,51.7,23.2,51.7,51.7
		c0,20.6-12,38.3-29.4,46.7c2.8,5.8,7.6,14.4,12.1,16.1c7.1,2.7,21.7,7,21.7,7s2.2,0.2,2.2,0.6C645,647.9,650.2,648.8,650.2,648.8z"
		/>
	<path class="st1" d="M404,763c0,0,110.8,25.3,196-6.4l16.6-35.1c0,0-63.4,30.7-196.1,8.1L404,763z"/>
</g>
</svg>
