<?xml version="1.0" encoding="utf-8"?>
<!-- Generator: Adobe Illustrator 22.1.0, SVG Export Plug-In . SVG Version: 6.00 Build 0)  -->
<svg version="1.1" id="Ebene_1" xmlns="http://www.w3.org/2000/svg" xmlns:xlink="http://www.w3.org/1999/xlink" x="0px" y="0px"
	 viewBox="0 0 1000 1000" style="enable-background:new 0 0 1000 1000;" xml:space="preserve">
<style type="text/css">
	.st0{fill:#97BF0D;}
	.st1{fill:#FFFFFF;}
</style>
<g id="Background">
	<rect id="st0" y="0" class="st0" width="1000" height="1000"/>
</g>
<path class="st1" d="M773.5,727.9v22.8c0,37.8-30.6,68.4-68.4,68.4h-547c-37.8,0-68.4-30.6-68.4-68.4V386
	c0-37.8,30.6-68.4,68.4-68.4h22.8V386h-14.2c-4.7,0-8.5,3.8-8.5,8.5v347.6c0,4.7,3.8,8.5,8.5,8.5h530c4.7,0,8.5-3.8,8.5-8.5v-14.2
	H773.5z M833.4,249.3h-530c-4.7,0-8.5,3.8-8.5,8.5v347.6c0,4.7,3.8,8.5,8.5,8.5h530c4.7,0,8.5-3.8,8.5-8.5V257.8
	C841.9,253.1,838.1,249.3,833.4,249.3z M841.9,180.9c37.8,0,68.4,30.6,68.4,68.4V614c0,37.8-30.6,68.4-68.4,68.4h-547
	c-37.8,0-68.4-30.6-68.4-68.4V249.3c0-37.8,30.6-68.4,68.4-68.4H841.9z M465.8,340.4c0,31.5-25.5,57-57,57s-57-25.5-57-57
	s25.5-57,57-57S465.8,309,465.8,340.4z M363.2,477.2l56.3-56.3c6.7-6.7,17.5-6.7,24.2,0l56.3,56.3l147.5-147.5
	c6.7-6.7,17.5-6.7,24.2,0l101.9,101.9v114H363.2V477.2z"/>
</svg>
